<svg width="40" height="51" viewBox="0 0 40 51" fill="none" xmlns="http://www.w3.org/2000/svg">
<path d="M39.9669 39.8947C31.1082 54.404 14.3118 50.4212 9.55218 46.1374C4.79252 41.8535 -0.348479 35.5437 1.28907 24.6209C2.28593 17.9716 6.34904 12.2389 11.7023 9.19988C13.958 7.91936 17.1927 7.25543 19.1533 6.95C20.1317 6.79758 20.904 5.99661 20.9615 5.00806L21.1125 2.41429C21.2102 0.736963 23.2072 -0.0797274 24.4522 1.04856L36.7314 12.177C37.6477 13.0074 37.5984 14.462 36.628 15.2284L23.078 25.9303C21.7238 26.9999 19.7415 25.9674 19.8418 24.2446L19.9837 21.8068C20.0382 20.8709 19.4188 20.0238 18.4838 20.0913C16.9362 20.2029 14.5712 20.9797 12.8273 24.2908C10.0119 29.6362 9.54697 37.6227 14.2776 42.4061C19.0083 47.1895 29.8141 50.8227 39.9669 39.8947Z" fill="#2369E8"/>
</svg>
