<svg width="51" height="43" viewBox="0 0 51 43" fill="none" xmlns="http://www.w3.org/2000/svg">
<g clip-path="url(#clip0_47_42)">
<path d="M49.4399 20.9415C49.4399 31.9865 40.4849 40.9415 29.4399 40.9415C18.3949 40.9415 9.43994 31.9865 9.43994 20.9415C9.43994 9.89647 18.3949 0.941475 29.4399 0.941475C40.4849 0.941475 49.4399 9.89647 49.4399 20.9415Z" fill="url(#paint0_linear_47_42)"/>
<path opacity="0.05" d="M38.6319 25.8915L33.6829 20.9415L38.6329 15.9915C39.4139 15.2105 39.4139 13.9445 38.6329 13.1635L37.2189 11.7495C36.4379 10.9685 35.1719 10.9685 34.3909 11.7495L29.4399 16.6985L24.4899 11.7485C23.7089 10.9675 22.4429 10.9675 21.6619 11.7485L20.2479 13.1625C19.4669 13.9435 19.4669 15.2095 20.2479 15.9905L25.1979 20.9405L20.2479 25.8905C19.4669 26.6715 19.4669 27.9375 20.2479 28.7185L21.6619 30.1325C22.4429 30.9135 23.7089 30.9135 24.4899 30.1325L29.4399 25.1825L34.3899 30.1325C35.1709 30.9135 36.4369 30.9135 37.2179 30.1325L38.6319 28.7185C39.4129 27.9385 39.4129 26.6725 38.6319 25.8915Z" fill="black"/>
<path opacity="0.07" d="M38.2791 26.2445L32.9761 20.9415L38.2791 15.6385C38.8651 15.0525 38.8651 14.1025 38.2791 13.5175L36.8651 12.1035C36.2791 11.5175 35.3291 11.5175 34.7441 12.1035L29.4401 17.4055L24.1371 12.1025C23.5511 11.5165 22.6011 11.5165 22.0161 12.1025L20.6021 13.5165C20.0161 14.1025 20.0161 15.0525 20.6021 15.6375L25.9041 20.9415L20.6011 26.2445C20.0151 26.8305 20.0151 27.7805 20.6011 28.3655L22.0151 29.7795C22.6011 30.3655 23.5511 30.3655 24.1361 29.7795L29.4401 24.4775L34.7431 29.7805C35.3291 30.3665 36.2791 30.3665 36.8641 29.7805L38.2781 28.3665C38.8651 27.7805 38.8651 26.8305 38.2791 26.2445Z" fill="black"/>
<path d="M36.5109 12.4565L37.9249 13.8705C38.3159 14.2615 38.3159 14.8945 37.9249 15.2845L23.7829 29.4265C23.3919 29.8175 22.7589 29.8175 22.3689 29.4265L20.9549 28.0125C20.5639 27.6215 20.5639 26.9885 20.9549 26.5985L35.0969 12.4565C35.4869 12.0655 36.1209 12.0655 36.5109 12.4565Z" fill="white"/>
<path d="M37.9249 28.0125L36.5109 29.4265C36.1199 29.8175 35.4869 29.8175 35.0969 29.4265L20.9549 15.2845C20.5639 14.8935 20.5639 14.2605 20.9549 13.8705L22.3689 12.4565C22.7599 12.0655 23.3929 12.0655 23.7829 12.4565L37.9249 26.5985C38.3159 26.9885 38.3159 27.6225 37.9249 28.0125Z" fill="white"/>
<path d="M38.4404 2.94091C53.4399 10.9415 50.4399 27.9409 46.4399 32.9415C42.4399 37.942 36.4395 43.441 25.44 42.441C18.744 41.8322 12.7849 38.1091 9.43994 32.9415C8.03051 30.764 7.17972 27.5733 6.76088 25.6338C6.55185 24.6659 5.70736 23.9415 4.71714 23.9415L2.11898 23.9415C0.438811 23.9415 -0.492553 21.9952 0.56148 20.6868L10.9575 7.78166C11.7333 6.81868 13.1883 6.78338 14.0098 7.70761L25.4811 20.6127C26.6275 21.9025 25.7119 23.9415 23.9862 23.9415L21.5443 23.9415C20.6069 23.9415 19.7972 24.609 19.9188 25.5385C20.1202 27.077 21.0331 29.3929 24.4399 30.9415C29.9399 33.4415 37.9399 33.4415 42.4404 28.4408C46.9408 23.4402 49.9399 12.4415 38.4404 2.94091Z" fill="#2369E8"/>
</g>
<defs>
<linearGradient id="paint0_linear_47_42" x1="15.298" y1="6.79957" x2="43.5818" y2="35.0834" gradientUnits="userSpaceOnUse">
<stop stop-color="#F44F5A"/>
<stop offset="0.4429" stop-color="#EE3D4A"/>
<stop offset="1" stop-color="#E52030"/>
</linearGradient>
<clipPath id="clip0_47_42">
<rect width="51" height="43" fill="white"/>
</clipPath>
</defs>
</svg>
