<svg width="87" height="83" viewBox="0 0 87 83" fill="none" xmlns="http://www.w3.org/2000/svg">
<g clip-path="url(#clip0_51_51)">
<path d="M38.1196 3.90191C40.3205 -0.557563 46.6795 -0.557558 48.8804 3.90192L57.2394 20.8392C58.1134 22.61 59.8028 23.8374 61.7571 24.1214L80.4484 26.8374C85.3698 27.5525 87.3348 33.6004 83.7737 37.0716L70.2485 50.2554C68.8344 51.6338 68.1891 53.6198 68.5229 55.5662L71.7158 74.182C72.5565 79.0835 67.4119 82.8212 63.0101 80.5071L46.2921 71.7179C44.5441 70.7989 42.4559 70.7989 40.708 71.7179L23.9899 80.5071C19.5881 82.8212 14.4435 79.0834 15.2842 74.182L18.4771 55.5662C18.8109 53.6198 18.1656 51.6338 16.7515 50.2554L3.22628 37.0716C-0.33482 33.6004 1.63024 27.5525 6.55156 26.8374L25.2429 24.1214C27.1972 23.8374 28.8866 22.61 29.7606 20.8392L38.1196 3.90191Z" fill="#D9AF23"/>
<mask id="mask0_51_51" style="mask-type:alpha" maskUnits="userSpaceOnUse" x="1" y="0" width="85" height="82">
<path d="M38.1196 3.90191C40.3205 -0.557563 46.6795 -0.557558 48.8804 3.90192L57.2394 20.8392C58.1134 22.61 59.8028 23.8374 61.7571 24.1214L80.4484 26.8374C85.3698 27.5525 87.3348 33.6004 83.7737 37.0716L70.2485 50.2554C68.8344 51.6338 68.1891 53.6198 68.5229 55.5662L71.7158 74.182C72.5565 79.0835 67.4119 82.8212 63.0101 80.5071L46.2921 71.7179C44.5441 70.7989 42.4559 70.7989 40.708 71.7179L23.9899 80.5071C19.5881 82.8212 14.4435 79.0834 15.2842 74.182L18.4771 55.5662C18.8109 53.6198 18.1656 51.6338 16.7515 50.2554L3.22628 37.0716C-0.33482 33.6004 1.63024 27.5525 6.55156 26.8374L25.2429 24.1214C27.1972 23.8374 28.8866 22.61 29.7606 20.8392L38.1196 3.90191Z" fill="#D9AF23"/>
</mask>
<g mask="url(#mask0_51_51)">
<path d="M8.51931 59.1352C8.5065 59.0455 8.48155 58.9579 8.44515 58.8749L-3.67867 31.2326C-3.86653 30.8043 -3.73242 30.303 -3.35578 30.0257L40.9399 -2.58764C41.2766 -2.83552 41.7319 -2.84779 42.0815 -2.61841L87.4252 27.1384C88.1779 27.6323 87.9457 28.7914 87.0608 28.9573L81.7842 29.9467C81.5986 29.9815 81.4265 30.0682 81.2881 30.1968L60.8863 49.1413C60.6445 49.3658 60.5291 49.6951 60.5777 50.0214L63.7034 71.0085C63.8251 71.826 62.9589 72.4299 62.234 72.0329L43.4763 61.7608C43.1792 61.5982 42.8201 61.5969 42.5219 61.7575L17.2334 75.3743C17.0804 75.4567 16.9516 75.5775 16.8595 75.7248L13.4508 81.1787C12.9566 81.9694 11.7447 81.7132 11.6129 80.7901L8.51931 59.1352Z" fill="#FFCE29"/>
<path d="M1.02031 34.6009C-0.876726 33.6352 -1.11423 31.1789 0.187074 29.4942L2.15837 26.9423C2.38502 26.6488 2.65137 26.3884 2.94975 26.1683L39.8665 -1.05781C41.3985 -2.18766 43.5145 -2.08135 44.9256 -0.803639L45.444 -0.334158C46.044 0.209138 46.471 0.920022 46.5893 1.72075C46.783 3.03165 46.9494 5.11269 46.3652 6.5C43.109 14.2336 36.5392 25.6121 34.2087 29.576C33.671 30.4906 32.7952 31.1425 31.7609 31.3785C27.6726 32.3111 16.3374 34.7019 4.36523 35.5C3.2986 35.5711 2.09732 35.1492 1.02031 34.6009Z" fill="#FFDD69"/>
</g>
<rect x="40.7119" y="9" width="4.6827" height="15.8035" rx="2" transform="rotate(27.6181 40.7119 9)" fill="white"/>
</g>
<defs>
<clipPath id="clip0_51_51">
<rect width="87" height="83" fill="white"/>
</clipPath>
</defs>
</svg>
