<svg width="87" height="84" viewBox="0 0 87 84" fill="none" xmlns="http://www.w3.org/2000/svg">
<g clip-path="url(#clip0_51_43)">
<path d="M38.1196 3.90191C40.3205 -0.557563 46.6795 -0.557558 48.8804 3.90192L57.2394 20.8392C58.1134 22.61 59.8028 23.8374 61.7571 24.1214L80.4484 26.8374C85.3698 27.5525 87.3348 33.6004 83.7737 37.0716L70.2485 50.2554C68.8344 51.6338 68.1891 53.6198 68.5229 55.5662L71.7158 74.182C72.5565 79.0835 67.4119 82.8212 63.0101 80.5071L46.2921 71.7179C44.5441 70.7989 42.4559 70.7989 40.708 71.7179L23.9899 80.5071C19.5881 82.8212 14.4435 79.0834 15.2842 74.182L18.4771 55.5662C18.8109 53.6198 18.1656 51.6338 16.7515 50.2554L3.22628 37.0716C-0.33482 33.6004 1.63024 27.5525 6.55156 26.8374L25.2429 24.1214C27.1972 23.8374 28.8866 22.61 29.7606 20.8392L38.1196 3.90191Z" fill="#FFCE29"/>
<mask id="mask0_51_43" style="mask-type:alpha" maskUnits="userSpaceOnUse" x="1" y="0" width="85" height="82">
<path d="M38.1196 3.90191C40.3205 -0.557563 46.6795 -0.557558 48.8804 3.90192L57.2394 20.8392C58.1134 22.61 59.8028 23.8374 61.7571 24.1214L80.4484 26.8374C85.3698 27.5525 87.3348 33.6004 83.7737 37.0716L70.2485 50.2554C68.8344 51.6338 68.1891 53.6198 68.5229 55.5662L71.7158 74.182C72.5565 79.0835 67.4119 82.8212 63.0101 80.5071L46.2921 71.7179C44.5441 70.7989 42.4559 70.7989 40.708 71.7179L23.9899 80.5071C19.5881 82.8212 14.4435 79.0834 15.2842 74.182L18.4771 55.5662C18.8109 53.6198 18.1656 51.6338 16.7515 50.2554L3.22628 37.0716C-0.33482 33.6004 1.63024 27.5525 6.55156 26.8374L25.2429 24.1214C27.1972 23.8374 28.8866 22.61 29.7606 20.8392L38.1196 3.90191Z" fill="#FFCE29"/>
</mask>
<g mask="url(#mask0_51_43)">
<path d="M39.3733 13.3617C41.0613 9.94129 45.9387 9.94129 47.6267 13.3617L54.038 26.3524C54.7083 27.7106 56.0041 28.652 57.503 28.8698L71.8391 30.953C75.6137 31.5015 77.1209 36.1401 74.3895 38.8025L64.0159 48.9143C62.9312 49.9716 62.4363 51.4948 62.6923 52.9876L65.1412 67.2658C65.786 71.0252 61.8402 73.892 58.4641 72.1171L45.6415 65.3758C44.3008 64.671 42.6992 64.671 41.3585 65.3758L28.5359 72.1171C25.1598 73.892 21.214 71.0252 21.8588 67.2658L24.3076 52.9876C24.5637 51.4948 24.0688 49.9716 22.9841 48.9143L12.6105 38.8025C9.87912 36.1401 11.3863 31.5015 15.1609 30.953L29.497 28.8698C30.9959 28.652 32.2916 27.7106 32.962 26.3524L39.3733 13.3617Z" fill="#C09C25"/>
</g>
</g>
<defs>
<clipPath id="clip0_51_43">
<rect width="87" height="84" fill="white"/>
</clipPath>
</defs>
</svg>
